<svg xmlns="http://www.w3.org/2000/svg" version="1.1" xmlns:xlink="http://www.w3.org/1999/xlink" xmlns:svgjs="http://svgjs.dev/svgjs" width="1440" height="800" preserveAspectRatio="none" viewBox="0 0 1440 800">
    <g mask="url(&quot;#SvgjsMask1018&quot;)" fill="none">
        <rect width="1440" height="800" x="0" y="0" fill="rgba(5, 8, 22, 1)"></rect>
        <path d="M1382.36 642.94L1402.07 642.94L1402.07 662.65L1382.36 662.65z" fill="#e73635"></path>
        <path d="M1019.14 278.36L1050.73 278.36L1050.73 312.35L1019.14 312.35z" fill="#e73635"></path>
        <path d="M183.59 399.53L215.96 399.53L215.96 431.9L183.59 431.9z" stroke="#037b0b" stroke-width="2.04"></path>
        <path d="M1146.82 353.12L1148.67 353.12L1148.67 354.97L1146.82 354.97z" stroke="#e73635" stroke-width="2.35"></path>
        <path d="M518.05 689.53L518.61 689.53L518.61 690.09L518.05 690.09z" stroke="#e73635" stroke-width="3.11"></path>
        <path d="M1022.73 116.98L1073.78 116.98L1073.78 156.22L1022.73 156.22z" fill="#037b0b"></path>
        <path d="M267.21 342.04L307.07 342.04L307.07 411.62L267.21 411.62z" stroke="#037b0b" stroke-width="2.85"></path>
        <path d="M834.39 107.73L897.05 107.73L897.05 170.39L834.39 170.39z" stroke="#037b0b" stroke-width="1.26"></path>
        <path d="M1052.28 461.51L1106.51 461.51L1106.51 492.62L1052.28 492.62z" stroke="#037b0b" stroke-width="1.29"></path>
        <path d="M121.91 639.33L136.27 639.33L136.27 653.69L121.91 653.69z" stroke="#d3b714" stroke-width="1.66"></path>
        <path d="M1275.43 499.49L1301.6 499.49L1301.6 525.66L1275.43 525.66z" stroke="#e73635" stroke-width="1.38"></path>
        <path d="M246.38 507.79L304.49 507.79L304.49 565.9L246.38 565.9z" stroke="#e73635" stroke-width="1.87"></path>
        <path d="M1113.06 714.95L1127.97 714.95L1127.97 729.86L1113.06 729.86z" stroke="#e73635" stroke-width="1.73"></path>
        <path d="M1071.52 500.78L1115.77 500.78L1115.77 545.03L1071.52 545.03z" stroke="#e73635" stroke-width="2.45"></path>
        <path d="M258.25 245.51L261.97 245.51L261.97 249.23L258.25 249.23z" fill="#d3b714"></path>
        <path d="M1116.79 368.06L1179.95 368.06L1179.95 431.22L1116.79 431.22z" stroke="#e73635" stroke-width="1.72"></path>
        <path d="M1353.42 493.57L1400.16 493.57L1400.16 540.31L1353.42 540.31z" fill="#d3b714"></path>
        <path d="M1092.82 290.57L1108.47 290.57L1108.47 306.22L1092.82 306.22z" stroke="#037b0b" stroke-width="1.39"></path>
        <path d="M1193.89 600.25L1235.06 600.25L1235.06 641.42L1193.89 641.42z" stroke="#d3b714" stroke-width="2.81"></path>
        <path d="M1118.35 569.24L1133.42 569.24L1133.42 584.31L1118.35 584.31z" fill="#037b0b"></path>
        <path d="M1346.14 156.09L1388.16 156.09L1388.16 198.11L1346.14 198.11z" fill="#d3b714"></path>
        <path d="M1176.09 343.21L1201.5 343.21L1201.5 368.62L1176.09 368.62z" stroke="#037b0b" stroke-width="2.4"></path>
        <path d="M400.22 94.83L423.57 94.83L423.57 118.18L400.22 118.18z" stroke="#037b0b" stroke-width="3.11"></path>
        <path d="M1209.14 186.05L1254.79 186.05L1254.79 231.7L1209.14 231.7z" fill="#d3b714"></path>
        <path d="M1234.53 341.2L1290.82 341.2L1290.82 397.49L1234.53 397.49z" stroke="#037b0b" stroke-width="1.07"></path>
        <path d="M387.24 414.59L389.21 414.59L389.21 416.56L387.24 416.56z" stroke="#037b0b" stroke-width="2.19"></path>
        <path d="M1359.33 161.64L1409.55 161.64L1409.55 211.86L1359.33 211.86z" fill="#e73635"></path>
        <path d="M149.58 654.89L208.1 654.89L208.1 713.41L149.58 713.41z" stroke="#037b0b" stroke-width="2.17"></path>
        <path d="M1119.88 162.8L1156.38 162.8L1156.38 199.3L1119.88 199.3z" stroke="#e73635" stroke-width="2.85"></path>
        <path d="M1303.77 387.86L1316.46 387.86L1316.46 400.55L1303.77 400.55z" fill="#d3b714"></path>
        <path d="M1061.83 431.16L1113.29 431.16L1113.29 482.62L1061.83 482.62z" stroke="#d3b714" stroke-width="1.09"></path>
        <path d="M1325.76 245.14L1332.61 245.14L1332.61 251.99L1325.76 251.99z" stroke="#e73635" stroke-width="2.26"></path>
        <path d="M654.95 289.96L694.57 289.96L694.57 329.58L654.95 329.58z" fill="#e73635"></path>
        <path d="M1172.95 465.38L1182.21 465.38L1182.21 474.64L1172.95 474.64z" stroke="#e73635" stroke-width="1.48"></path>
        <path d="M1177.07 597.62L1231.89 597.62L1231.89 652.44L1177.07 652.44z" stroke="#037b0b" stroke-width="2.97"></path>
        <path d="M1018.29 723.15L1058.85 723.15L1058.85 763.71L1018.29 763.71z" stroke="#037b0b" stroke-width="2.88"></path>
        <path d="M903.58 366.17L913.21 366.17L913.21 375.8L903.58 375.8z" stroke="#037b0b" stroke-width="3.04"></path>
        <path d="M1320.12 343.67L1365.67 343.67L1365.67 389.22L1320.12 389.22z" stroke="#037b0b" stroke-width="1.96"></path>
        <path d="M458.5 582.57L486.11 582.57L486.11 610.18L458.5 610.18z" stroke="#d3b714" stroke-width="2.72"></path>
        <path d="M348.04 258.79L381.3 258.79L381.3 292.05L348.04 292.05z" stroke="#037b0b" stroke-width="1.9"></path>
        <path d="M1010.8 155.9L1037.72 155.9L1037.72 182.82L1010.8 182.82z" stroke="#d3b714" stroke-width="2.02"></path>
        <path d="M219.19 328.99L263.45 328.99L263.45 373.25L219.19 373.25z" stroke="#037b0b" stroke-width="2.19"></path>
        <path d="M1064.27 144.9L1073.31 144.9L1073.31 153.94L1064.27 153.94z" stroke="#e73635" stroke-width="1.69"></path>
        <path d="M376.71 196.56L405.33 196.56L405.33 225.18L376.71 225.18z" stroke="#037b0b" stroke-width="2.18"></path>
        <path d="M1033.76 465.37L1081.97 465.37L1081.97 513.58L1033.76 513.58z" fill="#037b0b"></path>
        <path d="M1247.48 562.04L1267.93 562.04L1267.93 582.49L1247.48 582.49z" stroke="#d3b714" stroke-width="1.48"></path>
        <path d="M1036.38 387.48L1067.77 387.48L1067.77 418.87L1036.38 418.87z" stroke="#037b0b" stroke-width="1.19"></path>
        <path d="M1204.76 152.15L1223.01 152.15L1223.01 170.4L1204.76 170.4z" stroke="#d3b714" stroke-width="1.13"></path>
        <path d="M1147.11 274.01L1174.59 274.01L1174.59 301.49L1147.11 301.49z" stroke="#037b0b" stroke-width="1.97"></path>
        <path d="M1022.05 323.31L1063.84 323.31L1063.84 365.1L1022.05 365.1z" stroke="#d3b714" stroke-width="2.18"></path>
        <path d="M1036.04 620.32L1041.2 620.32L1041.2 625.48L1036.04 625.48z" stroke="#d3b714" stroke-width="2.4"></path>
        <path d="M267.72 446.91L304.49 446.91L304.49 483.68L267.72 483.68z" stroke="#037b0b" stroke-width="2.52"></path>
        <path d="M1064.02 231.58L1087.55 231.58L1087.55 255.11L1064.02 255.11z" stroke="#d3b714" stroke-width="1.24"></path>
        <path d="M1120.34 254.2L1137.05 254.2L1137.05 270.91L1120.34 270.91z" stroke="#037b0b" stroke-width="2.2"></path>
        <path d="M1235.68 485.12L1255.32 485.12L1255.32 504.76L1235.68 504.76z" stroke="#d3b714" stroke-width="1.25"></path>
        <path d="M1224.82 341.86L1251.85 341.86L1251.85 368.89L1224.82 368.89z" fill="#037b0b"></path>
        <path d="M400.75 367.38L469.27 367.38L469.27 435.9L400.75 435.9z" stroke="#e73635" stroke-width="2.5"></path>
        <path d="M175.93 129.67L231 129.67L231 184.74L175.93 184.74z" fill="#d3b714"></path>
        <path d="M1301.3 232.06L1340.11 232.06L1340.11 270.87L1301.3 270.87z" stroke="#037b0b" stroke-width="2.14"></path>
        <path d="M1109.89 635.18L1149.25 635.18L1149.25 674.54L1109.89 674.54z" stroke="#d3b714" stroke-width="1.99"></path>
        <path d="M1260.15 267.82L1276.71 267.82L1276.71 284.38L1260.15 284.38z" stroke="#037b0b" stroke-width="2.5"></path>
        <path d="M1126.94 539.89L1148.3 539.89L1148.3 561.25L1126.94 561.25z" stroke="#e73635" stroke-width="2.51"></path>
        <path d="M1235.18 203.17L1264.89 203.17L1264.89 232.88L1235.18 232.88z" stroke="#e73635" stroke-width="1.96"></path>
        <path d="M1180.56 402.57L1193.31 402.57L1193.31 415.32L1180.56 415.32z" stroke="#e73635" stroke-width="2.57"></path>
        <path d="M1164.32 464.67L1169.81 464.67L1169.81 470.16L1164.32 470.16z" stroke="#e73635" stroke-width="2.11"></path>
    </g>
    <defs>
        <mask id="SvgjsMask1018">
            <rect width="1440" height="800" fill="#ffffff"></rect>
        </mask>
    </defs>
</svg> 